<?xml version="1.0" standalone="no"?>
<!DOCTYPE svg PUBLIC "-//W3C//DTD SVG 20010904//EN"
 "http://www.w3.org/TR/2001/REC-SVG-20010904/DTD/svg10.dtd">
<svg version="1.0" xmlns="http://www.w3.org/2000/svg"
 width="256.000000pt" height="256.000000pt" viewBox="0 0 256.000000 256.000000"
 preserveAspectRatio="xMidYMid meet">
<metadata>
Created by potrace 1.11, written by Peter Selinger 2001-2013
</metadata>
<g transform="translate(0.000000,256.000000) scale(0.100000,-0.100000)"
fill="#000000" stroke="none">
<path d="M1380 1390 l0 -560 65 0 65 0 0 287 0 286 25 33 c13 17 48 44 77 58
103 52 218 26 262 -59 20 -37 21 -59 24 -322 l4 -283 65 0 64 0 -3 308 c-3
287 -5 310 -24 352 -45 96 -120 141 -237 142 -89 1 -153 -24 -214 -85 l-43
-41 0 222 0 222 -65 0 -65 0 0 -560z"/>
<path d="M750 1629 c-76 -11 -124 -33 -175 -80 -47 -43 -68 -89 -67 -148 2
-110 84 -173 291 -226 116 -29 175 -55 191 -84 17 -33 12 -85 -11 -110 -76
-81 -284 -68 -339 21 -11 18 -20 41 -20 51 0 14 -10 17 -70 17 -66 0 -70 -1
-70 -22 1 -66 80 -162 166 -199 141 -63 367 -26 446 72 34 42 53 113 44 161
-16 88 -87 143 -236 183 -181 49 -204 57 -232 85 -50 50 -27 125 48 156 43 18
145 18 187 0 39 -16 87 -70 87 -97 0 -17 8 -19 70 -19 66 0 70 1 70 23 0 41
-51 127 -93 158 -68 49 -185 73 -287 58z"/>
<path d="M480 620 l0 -50 775 0 775 0 0 50 0 50 -775 0 -775 0 0 -50z"/>
</g>
</svg>
